#N canvas 282 7 1700 981 16;
#N canvas 0 23 1795 862 code 0;
#X msg 14 498 1;
#X msg 218 498 2;
#X msg 420 498 3;
#X msg 624 498 4;
#X obj 582 608 mtof;
#X obj 582 650 osc~;
#X obj 582 820 dac~;
#X obj 583 784 *~;
#X obj 207 128 hsl 128 15 0 127 0 0 empty empty empty -2 -8 0 10 -262144
-1 -1 600 1;
#X obj 204 156 / 127;
#X obj 353 299 sel 1 2 3 4 5 6 7 8 9 10 11 12 13 14 15 16 17 18 19
20 21 22 23 24 25 26;
#X obj 353 184 int;
#X obj 353 213 + 1;
#X obj 353 269 + 1;
#X floatatom 393 268 5 0 0 0 - - -;
#X msg 64 498 8;
#X msg 115 498 4;
#X msg 165 498 11;
#X msg 268 498 9;
#X msg 319 498 5;
#X msg 369 498 12;
#X msg 470 498 10;
#X msg 521 498 6;
#X msg 571 498 13;
#X msg 775 498 14;
#X msg 674 498 11;
#X msg 725 498 7;
#X obj 582 575 + 60;
#X obj 353 155 metro 160;
#X msg 827 498 5;
#X msg 877 498 12;
#X msg 928 498 8;
#X msg 978 498 15;
#X msg 1027 498 6;
#X msg 1228 497 7;
#X msg 1077 498 13;
#X msg 1279 497 14;
#X msg 1128 498 9;
#X msg 1178 497 16;
#X text 387 93 1;
#X floatatom 1227 93 3 0 0 0 - - -;
#X floatatom 1267 92 3 0 0 0 - - -;
#X floatatom 1307 92 3 0 0 0 - - -;
#X floatatom 1347 92 3 0 0 0 - - -;
#X floatatom 1387 92 3 0 0 0 - - -;
#X obj 1265 153 == 13;
#X obj 1325 153 == 9;
#X obj 1385 153 == 16;
#X obj 1445 153 == 7;
#X obj 1505 153 == 14;
#X obj 1265 180 tgl 15 0 empty empty empty 17 7 0 10 -262144 -1 -1
1 1;
#X obj 1325 180 tgl 15 0 empty empty empty 17 7 0 10 -262144 -1 -1
1 1;
#X obj 1385 180 tgl 15 0 empty empty empty 17 7 0 10 -262144 -1 -1
1 1;
#X obj 1445 180 tgl 15 0 empty empty empty 17 7 0 10 -262144 -1 -1
1 1;
#X obj 1505 180 tgl 15 0 empty empty empty 17 7 0 10 -262144 -1 -1
1 1;
#X obj 1445 227 +;
#X obj 1385 285 +;
#X obj 1325 345 +;
#X obj 1265 406 +;
#X obj 1265 433 == 5;
#X text 427 93 8;
#X text 467 93 4;
#X text 499 93 11;
#X text 549 93 2;
#X text 589 93 9;
#X text 629 93 5;
#X text 659 93 12;
#X text 709 93 3;
#X text 739 93 10;
#X text 789 93 6;
#X text 819 93 13;
#X text 869 93 4;
#X text 899 93 11;
#X text 979 93 14;
#X text 1029 93 5;
#X text 1059 93 12;
#X text 1109 93 8;
#X text 1139 93 15;
#X text 1189 93 6;
#X obj 204 211 line~;
#X msg 204 184 \$1 50;
#X obj 105 55 loadbang;
#X msg 105 83 20;
#X text 383 8 Recognize the pattern in this sequence and complete the
row. Use your mouse and write the correct numbers into the boxes. If
all numbers are correct \, the music will start.;
#X obj 583 756 *~;
#X obj 660 722 line~;
#X obj 660 578 bng 15 250 50 0 empty empty empty 17 7 0 10 -262144
-1 -1;
#X obj 660 599 t b b;
#X msg 660 682 0.2 2;
#X msg 750 682 0 10;
#X obj 750 633 delay 100;
#X obj 1265 460 tgl 15 0 empty empty empty 17 7 0 10 -262144 -1 -1
1 1;
#X obj 1325 375 t b f;
#X obj 1385 315 t b f;
#X obj 1445 256 t b f;
#X obj 1505 199 t b f;
#X obj 387 124 bng 15 250 50 0 empty empty empty 17 7 0 10 -262144
-1 -1;
#X obj 427 124 bng 15 250 50 0 empty empty empty 17 7 0 10 -262144
-1 -1;
#X obj 467 124 bng 15 250 50 0 empty empty empty 17 7 0 10 -262144
-1 -1;
#X obj 507 124 bng 15 250 50 0 empty empty empty 17 7 0 10 -262144
-1 -1;
#X obj 547 124 bng 15 250 50 0 empty empty empty 17 7 0 10 -262144
-1 -1;
#X obj 587 124 bng 15 250 50 0 empty empty empty 17 7 0 10 -262144
-1 -1;
#X obj 627 124 bng 15 250 50 0 empty empty empty 17 7 0 10 -262144
-1 -1;
#X obj 667 124 bng 15 250 50 0 empty empty empty 17 7 0 10 -262144
-1 -1;
#X obj 707 124 bng 15 250 50 0 empty empty empty 17 7 0 10 -262144
-1 -1;
#X obj 747 124 bng 15 250 50 0 empty empty empty 17 7 0 10 -262144
-1 -1;
#X obj 787 124 bng 15 250 50 0 empty empty empty 17 7 0 10 -262144
-1 -1;
#X obj 827 124 bng 15 250 50 0 empty empty empty 17 7 0 10 -262144
-1 -1;
#X obj 867 124 bng 15 250 50 0 empty empty empty 17 7 0 10 -262144
-1 -1;
#X obj 907 124 bng 15 250 50 0 empty empty empty 17 7 0 10 -262144
-1 -1;
#X obj 947 124 bng 15 250 50 0 empty empty empty 17 7 0 10 -262144
-1 -1;
#X obj 987 124 bng 15 250 50 0 empty empty empty 17 7 0 10 -262144
-1 -1;
#X obj 1027 124 bng 15 250 50 0 empty empty empty 17 7 0 10 -262144
-1 -1;
#X obj 1067 124 bng 15 250 50 0 empty empty empty 17 7 0 10 -262144
-1 -1;
#X obj 1107 124 bng 15 250 50 0 empty empty empty 17 7 0 10 -262144
-1 -1;
#X obj 1147 124 bng 15 250 50 0 empty empty empty 17 7 0 10 -262144
-1 -1;
#X obj 1187 124 bng 15 250 50 0 empty empty empty 17 7 0 10 -262144
-1 -1;
#X obj 1227 124 bng 15 250 50 0 empty empty empty 17 7 0 10 -262144
-1 -1;
#X obj 1267 124 bng 15 250 50 0 empty empty empty 17 7 0 10 -262144
-1 -1;
#X obj 1307 124 bng 15 250 50 0 empty empty empty 17 7 0 10 -262144
-1 -1;
#X obj 1347 124 bng 15 250 50 0 empty empty empty 17 7 0 10 -262144
-1 -1;
#X obj 1387 124 bng 15 250 50 0 empty empty empty 17 7 0 10 -262144
-1 -1;
#X text 949 93 7;
#X obj 353 241 % 26;
#X connect 0 0 27 0;
#X connect 1 0 27 0;
#X connect 2 0 27 0;
#X connect 3 0 27 0;
#X connect 4 0 5 0;
#X connect 5 0 84 0;
#X connect 7 0 6 0;
#X connect 7 0 6 1;
#X connect 8 0 9 0;
#X connect 9 0 80 0;
#X connect 10 0 0 0;
#X connect 10 0 96 0;
#X connect 10 1 15 0;
#X connect 10 1 97 0;
#X connect 10 2 16 0;
#X connect 10 2 98 0;
#X connect 10 3 17 0;
#X connect 10 3 99 0;
#X connect 10 4 1 0;
#X connect 10 4 100 0;
#X connect 10 5 18 0;
#X connect 10 5 101 0;
#X connect 10 6 19 0;
#X connect 10 6 102 0;
#X connect 10 7 20 0;
#X connect 10 7 103 0;
#X connect 10 8 2 0;
#X connect 10 8 104 0;
#X connect 10 9 21 0;
#X connect 10 9 105 0;
#X connect 10 10 22 0;
#X connect 10 10 106 0;
#X connect 10 11 23 0;
#X connect 10 11 107 0;
#X connect 10 12 3 0;
#X connect 10 12 108 0;
#X connect 10 13 25 0;
#X connect 10 13 109 0;
#X connect 10 14 26 0;
#X connect 10 14 110 0;
#X connect 10 15 24 0;
#X connect 10 15 111 0;
#X connect 10 16 29 0;
#X connect 10 16 112 0;
#X connect 10 17 30 0;
#X connect 10 17 113 0;
#X connect 10 18 31 0;
#X connect 10 18 114 0;
#X connect 10 19 32 0;
#X connect 10 19 115 0;
#X connect 10 20 33 0;
#X connect 10 20 116 0;
#X connect 10 21 35 0;
#X connect 10 21 117 0;
#X connect 10 22 37 0;
#X connect 10 22 118 0;
#X connect 10 23 38 0;
#X connect 10 23 119 0;
#X connect 10 24 34 0;
#X connect 10 24 120 0;
#X connect 10 25 36 0;
#X connect 10 25 121 0;
#X connect 11 0 12 0;
#X connect 12 0 123 0;
#X connect 13 0 10 0;
#X connect 13 0 14 0;
#X connect 13 0 86 0;
#X connect 15 0 27 0;
#X connect 16 0 27 0;
#X connect 17 0 27 0;
#X connect 18 0 27 0;
#X connect 19 0 27 0;
#X connect 20 0 27 0;
#X connect 21 0 27 0;
#X connect 22 0 27 0;
#X connect 23 0 27 0;
#X connect 24 0 27 0;
#X connect 25 0 27 0;
#X connect 26 0 27 0;
#X connect 27 0 4 0;
#X connect 28 0 11 0;
#X connect 29 0 27 0;
#X connect 30 0 27 0;
#X connect 31 0 27 0;
#X connect 32 0 27 0;
#X connect 33 0 27 0;
#X connect 34 0 27 0;
#X connect 35 0 27 0;
#X connect 36 0 27 0;
#X connect 37 0 27 0;
#X connect 38 0 27 0;
#X connect 40 0 45 0;
#X connect 41 0 46 0;
#X connect 42 0 47 0;
#X connect 43 0 48 0;
#X connect 44 0 49 0;
#X connect 45 0 50 0;
#X connect 46 0 51 0;
#X connect 47 0 52 0;
#X connect 48 0 53 0;
#X connect 49 0 54 0;
#X connect 50 0 58 0;
#X connect 51 0 57 0;
#X connect 52 0 56 0;
#X connect 53 0 55 0;
#X connect 54 0 95 0;
#X connect 55 0 94 0;
#X connect 56 0 93 0;
#X connect 57 0 92 0;
#X connect 58 0 59 0;
#X connect 59 0 91 0;
#X connect 79 0 7 1;
#X connect 80 0 79 0;
#X connect 81 0 82 0;
#X connect 82 0 8 0;
#X connect 84 0 7 0;
#X connect 85 0 84 1;
#X connect 86 0 87 0;
#X connect 87 0 88 0;
#X connect 87 1 90 0;
#X connect 88 0 85 0;
#X connect 89 0 85 0;
#X connect 90 0 89 0;
#X connect 91 0 28 0;
#X connect 92 0 58 0;
#X connect 92 1 58 1;
#X connect 93 0 57 0;
#X connect 93 1 57 1;
#X connect 94 0 56 0;
#X connect 94 1 56 1;
#X connect 95 0 55 0;
#X connect 95 1 55 1;
#X connect 123 0 11 1;
#X connect 123 0 13 0;
#X coords 0 0 1 1 1366 150 1 200 0;
#X restore 10 16 pd code;
#X coords 0 981 1 980 1330 100 0;
